<?xml version="1.0" standalone="no"?>
<!DOCTYPE svg PUBLIC "-//W3C//DTD SVG 20010904//EN"
 "http://www.w3.org/TR/2001/REC-SVG-20010904/DTD/svg10.dtd">
<svg version="1.0" xmlns="http://www.w3.org/2000/svg"
 width="209.000000pt" height="241.000000pt" viewBox="0 0 209.000000 241.000000"
 preserveAspectRatio="xMidYMid meet">
<metadata>
Created by potrace 1.15, written by Peter Selinger 2001-2017
</metadata>
<g transform="translate(0.000000,241.000000) scale(0.100000,-0.100000)"
fill="#000000" stroke="none">
<path d="M513 2102 l-513 -297 0 -93 c0 -82 2 -93 16 -88 9 3 46 6 82 6 l67 1
79 114 c44 63 84 115 90 115 15 0 267 -68 272 -73 2 -2 10 -65 16 -140 l12
-137 68 -45 c38 -25 86 -61 107 -80 l38 -34 128 24 c71 14 136 25 145 25 14
-1 150 -224 150 -247 0 -5 -41 -56 -90 -114 -74 -85 -89 -109 -85 -129 3 -14
10 -75 16 -136 l12 -111 104 -73 c58 -40 107 -79 110 -86 3 -10 -33 -164 -63
-265 -3 -13 -24 -18 -92 -23 -199 -16 -186 -11 -228 -79 -29 -48 -34 -61 -23
-68 8 -5 37 -21 64 -37 l50 -29 500 289 c275 159 507 293 515 298 13 7 6 27
-40 120 -38 78 -61 112 -75 115 -11 2 -47 9 -80 16 -33 6 -84 20 -113 31 l-53
20 -123 -80 -124 -81 -115 91 -115 90 48 138 49 137 -25 37 c-14 20 -43 75
-66 121 -28 59 -46 85 -61 88 -12 3 -75 17 -139 32 -134 31 -119 12 -138 175
-6 52 -13 105 -16 117 -4 20 10 30 124 87 l129 65 7 43 c3 24 18 84 32 135
l26 92 -72 111 c-40 60 -77 110 -84 109 -6 0 -242 -134 -523 -297z"/>
<path d="M1660 2000 c-139 -273 21 -614 322 -685 35 -8 73 -15 86 -15 l22 0 0
253 0 252 -157 90 c-86 50 -178 102 -205 118 l-48 27 -20 -40z"/>
<path d="M37 1139 l-37 -11 0 -262 0 -261 241 -139 c190 -110 245 -137 258
-129 29 18 96 127 116 188 28 86 26 229 -4 307 -52 134 -156 242 -279 289 -66
25 -232 35 -295 18z"/>
</g>
</svg>
